Coordinates
version=1
nRows=34
nColumns=38
inDegrees=no

Units are S.I. units (second, meters, Newtons, ...)
If the header above contains a line with 'inDegrees', this indicates whether rotational values are in degrees (yes) or radians (no).

endheader
time	pelvis_tilt	pelvis_list	pelvis_rotation	pelvis_tx	pelvis_ty	pelvis_tz	hip_flexion_r	hip_adduction_r	hip_rotation_r	knee_angle_r	ankle_angle_r	subtalar_angle_r	mtp_angle_r	hip_flexion_l	hip_adduction_l	hip_rotation_l	knee_angle_l	ankle_angle_l	subtalar_angle_l	mtp_angle_l	lumbar_extension	lumbar_bending	lumbar_rotation	arm_flex_r	arm_add_r	arm_rot_r	elbow_flex_r	pro_sup_r	wrist_flex_r	wrist_dev_r	arm_flex_l	arm_add_l	arm_rot_l	elbow_flex_l	pro_sup_l	wrist_flex_l	wrist_dev_l
0	-0.615971	1.42111	-0.814668	0.838637	1.55572	1.00564	0.380359	0.0822107	-0.132662	0.541468	-0.0737978	0	0	-0.27267	-0.217898	-0.238652	0.732049	-0.0940172	0	0	-0.338886	0.134854	0.0456656	-0.270602	-0.299439	0.313092	0.58549	0.908381	0	0	0.595258	-0.513149	1.5708	0.386207	0.773478	0	0
0.01	-0.660368	1.42332	-0.778334	0.837222	1.5438	1.00561	0.385367	0.0961076	-0.112541	0.560968	-0.0698167	0	0	-0.26119	-0.219689	-0.231396	0.761516	-0.106719	0	0	-0.332459	0.141541	0.0524329	-0.274885	-0.301335	0.310205	0.588318	0.90345	0	0	0.573886	-0.514292	1.56276	0.387708	0.762225	0	0
0.02	-0.683976	1.42399	-0.760757	0.836026	1.53148	1.00589	0.38618	0.101485	-0.112984	0.579046	-0.0675396	0	0	-0.250857	-0.21973	-0.220107	0.791956	-0.123433	0	0	-0.328557	0.147477	0.0566475	-0.28011	-0.302647	0.30571	0.592288	0.90155	0	0	0.55021	-0.515553	1.54943	0.389549	0.748102	0	0
0.03	-0.695045	1.42278	-0.754775	0.834858	1.51919	1.00652	0.378495	0.106906	-0.117744	0.587062	-0.0640119	0	0	-0.240141	-0.220223	-0.207449	0.825152	-0.143048	0	0	-0.327733	0.153456	0.0598235	-0.28492	-0.303939	0.300869	0.597164	0.901432	0	0	0.526042	-0.516864	1.53564	0.391867	0.734991	0	0
0.04	-0.699311	1.42082	-0.755025	0.833672	1.50703	1.00732	0.366794	0.111752	-0.126296	0.588327	-0.0593306	0	0	-0.227605	-0.221052	-0.194072	0.861444	-0.166579	0	0	-0.328536	0.159362	0.0615857	-0.289423	-0.305396	0.295361	0.603281	0.902526	0	0	0.501137	-0.518521	1.52224	0.394757	0.720948	0	0
0.05	-0.700998	1.41899	-0.758262	0.83239	1.49502	1.00814	0.353885	0.116894	-0.13393	0.586208	-0.0545525	0	0	-0.212795	-0.221711	-0.181375	0.900098	-0.191271	0	0	-0.329916	0.164625	0.0631967	-0.293372	-0.306967	0.289958	0.609706	0.904959	0	0	0.476328	-0.520232	1.51127	0.398139	0.707588	0	0
0.06	-0.703162	1.41802	-0.761613	0.831085	1.48318	1.00888	0.342196	0.121954	-0.139292	0.584931	-0.0492289	0	0	-0.195473	-0.221578	-0.168492	0.940339	-0.212794	0	0	-0.330828	0.169127	0.0650461	-0.296999	-0.308866	0.284847	0.61612	0.908722	0	0	0.452057	-0.521361	1.50425	0.401464	0.696247	0	0
0.07	-0.700991	1.41748	-0.769273	0.829901	1.47164	1.00964	0.331283	0.126065	-0.142055	0.586092	-0.0438288	0	0	-0.176745	-0.219371	-0.153137	0.980805	-0.225124	0	0	-0.332199	0.172566	0.0677158	-0.299642	-0.310878	0.281022	0.621123	0.912369	0	0	0.429609	-0.520999	1.50103	0.403901	0.690188	0	0
0.08	-0.697502	1.41688	-0.777733	0.828914	1.46032	1.01038	0.32089	0.129597	-0.142274	0.589538	-0.0378652	0	0	-0.156721	-0.216747	-0.137313	1.02184	-0.228809	0	0	-0.333707	0.176049	0.0703001	-0.302183	-0.313587	0.277538	0.626436	0.915192	0	0	0.408176	-0.519357	1.49999	0.40566	0.688228	0	0
0.09	-0.690609	1.41667	-0.790456	0.827873	1.4491	1.01119	0.309824	0.133259	-0.136599	0.59338	-0.0296694	0	0	-0.136776	-0.214067	-0.125401	1.0616	-0.222656	0	0	-0.335171	0.178365	0.0736084	-0.304526	-0.316202	0.273721	0.631327	0.917984	0	0	0.387316	-0.516683	1.50087	0.406308	0.688354	0	0
0.1	-0.68013	1.41672	-0.808239	0.826701	1.43782	1.0121	0.296606	0.137604	-0.124795	0.594591	-0.0197271	0	0	-0.117218	-0.211267	-0.118551	1.10025	-0.207559	0	0	-0.336598	0.179212	0.078894	-0.306744	-0.318531	0.270482	0.634884	0.921025	0	0	0.367152	-0.512848	1.50308	0.405707	0.69077	0	0
0.11	-0.659537	1.41623	-0.8365	0.825511	1.4265	1.01325	0.280683	0.140937	-0.112545	0.594328	-0.00900961	0	0	-0.0991099	-0.208759	-0.117004	1.13697	-0.187389	0	0	-0.339111	0.178592	0.0854388	-0.308559	-0.320298	0.267656	0.636727	0.92399	0	0	0.348114	-0.507874	1.506	0.403886	0.695056	0	0
0.12	-0.621752	1.41461	-0.880362	0.824519	1.4154	1.01475	0.261059	0.141934	-0.10289	0.591489	0.00146929	0	0	-0.0826832	-0.205672	-0.117614	1.17086	-0.166123	0	0	-0.344298	0.176719	0.0915152	-0.309687	-0.321508	0.264659	0.637584	0.926309	0	0	0.331143	-0.501638	1.50939	0.401013	0.700151	0	0
0.13	-0.577886	1.41181	-0.929514	0.823513	1.40443	1.01647	0.238675	0.142685	-0.0946335	0.584938	0.0108619	0	0	-0.0667293	-0.201904	-0.116957	1.20175	-0.145986	0	0	-0.350877	0.174388	0.0976572	-0.310463	-0.322197	0.261329	0.637718	0.927901	0	0	0.315602	-0.4949	1.51249	0.397859	0.705215	0	0
0.14	-0.535923	1.40844	-0.977015	0.822458	1.39352	1.01824	0.21511	0.143972	-0.0872546	0.575382	0.0186768	0	0	-0.0505187	-0.19833	-0.116114	1.22919	-0.128122	0	0	-0.357542	0.17194	0.104571	-0.310972	-0.322726	0.258204	0.637024	0.929122	0	0	0.300844	-0.48825	1.51477	0.39534	0.70989	0	0
0.15	-0.499761	1.40498	-1.01927	0.821409	1.38271	1.02	0.191221	0.145887	-0.080248	0.56331	0.0249465	0	0	-0.0333635	-0.194574	-0.11348	1.25283	-0.112321	0	0	-0.363773	0.169741	0.112456	-0.311499	-0.32355	0.255787	0.635852	0.930148	0	0	0.286698	-0.481424	1.51574	0.39367	0.713521	0	0
0.16	-0.467669	1.40156	-1.05793	0.820376	1.37204	1.02179	0.166407	0.147822	-0.0731141	0.5481	0.0301695	0	0	-0.0159531	-0.192285	-0.112739	1.27119	-0.0985319	0	0	-0.369814	0.167529	0.120993	-0.311673	-0.324551	0.253952	0.634221	0.930998	0	0	0.273145	-0.474578	1.51494	0.392774	0.714967	0	0
0.17	-0.439994	1.398	-1.09199	0.819413	1.36154	1.02361	0.139739	0.149794	-0.0645864	0.528252	0.0344106	0	0	0.00226818	-0.18997	-0.10999	1.28482	-0.0866232	0	0	-0.3758	0.165703	0.129441	-0.311564	-0.325873	0.252556	0.632735	0.931645	0	0	0.26013	-0.467663	1.51224	0.39279	0.713755	0	0
0.18	-0.41592	1.39471	-1.12223	0.818519	1.35122	1.0254	0.112339	0.151145	-0.0554622	0.506002	0.0364333	0	0	0.0216262	-0.18709	-0.105021	1.29378	-0.0780155	0	0	-0.381516	0.164023	0.137371	-0.311204	-0.327617	0.25163	0.631935	0.931922	0	0	0.247486	-0.461294	1.50782	0.394234	0.710147	0	0
0.19	-0.395108	1.39168	-1.14934	0.817646	1.34104	1.02717	0.0843259	0.152076	-0.0458806	0.481177	0.0357052	0	0	0.0416131	-0.184006	-0.0994644	1.29799	-0.0714386	0	0	-0.386984	0.162339	0.145218	-0.310848	-0.329597	0.250801	0.631937	0.931199	0	0	0.235267	-0.455504	1.50197	0.397194	0.70459	0	0
0.2	-0.379406	1.38934	-1.17171	0.816626	1.33089	1.02889	0.0564113	0.153281	-0.0359256	0.453851	0.0319234	0	0	0.0622986	-0.181467	-0.094125	1.29792	-0.0657547	0	0	-0.391334	0.16059	0.153368	-0.310055	-0.331096	0.250867	0.630983	0.929614	0	0	0.223209	-0.449485	1.49501	0.400055	0.697593	0	0
0.21	-0.366521	1.38781	-1.19061	0.815461	1.32067	1.03058	0.0284349	0.154567	-0.026265	0.42387	0.0267154	0	0	0.0835367	-0.180194	-0.0902137	1.29376	-0.0610864	0	0	-0.394249	0.158499	0.160355	-0.307575	-0.331334	0.2528	0.626906	0.928043	0	0	0.211005	-0.443675	1.48707	0.402353	0.690484	0	0
0.22	-0.35189	1.38555	-1.21113	0.814418	1.31046	1.03223	-0.00150185	0.155399	-0.0165075	0.391993	0.0207504	0	0	0.103118	-0.178861	-0.0888352	1.28593	-0.0566304	0	0	-0.397996	0.156379	0.167433	-0.306041	-0.331993	0.254158	0.624472	0.926007	0	0	0.199674	-0.438182	1.47891	0.405857	0.684349	0	0
0.23	-0.336501	1.38181	-1.23249	0.813506	1.30045	1.0338	-0.0339692	0.156283	-0.00584727	0.359234	0.0150441	0	0	0.120468	-0.177521	-0.0900493	1.27527	-0.0513595	0	0	-0.403932	0.154658	0.175454	-0.306641	-0.333725	0.253108	0.626379	0.924143	0	0	0.190233	-0.433469	1.4711	0.412146	0.679722	0	0
0.24	-0.318217	1.37483	-1.25798	0.812601	1.29079	1.03544	-0.0698259	0.156899	0.00711609	0.324564	0.00532482	0	0	0.133025	-0.176897	-0.095618	1.26168	-0.0452725	0	0	-0.414804	0.153155	0.185838	-0.310619	-0.337097	0.247148	0.635775	0.922683	0	0	0.183606	-0.429741	1.46496	0.421878	0.677315	0	0
0.25	-0.298812	1.36674	-1.28583	0.811791	1.28103	1.03708	-0.10673	0.156029	0.0199483	0.288971	-0.00753585	0	0	0.142123	-0.176649	-0.106065	1.24484	-0.0391207	0	0	-0.426902	0.151273	0.197178	-0.316131	-0.341134	0.239213	0.647616	0.922676	0	0	0.177215	-0.424916	1.45892	0.430755	0.675691	0	0
0.26	-0.280102	1.35733	-1.31364	0.811115	1.27138	1.03863	-0.144875	0.15401	0.033052	0.253148	-0.022603	0	0	0.148249	-0.176629	-0.12038	1.22599	-0.0316042	0	0	-0.440749	0.14952	0.209343	-0.323558	-0.346023	0.228898	0.66291	0.924148	0	0	0.171805	-0.419473	1.45382	0.43989	0.675069	0	0
0.27	-0.263728	1.34905	-1.33726	0.810312	1.26156	1.03994	-0.182892	0.151648	0.0446273	0.214892	-0.0388804	0	0	0.154747	-0.176787	-0.135145	1.20546	-0.0223589	0	0	-0.45235	0.147462	0.218586	-0.329617	-0.348902	0.218666	0.67514	0.928192	0	0	0.16569	-0.414873	1.44801	0.448584	0.674478	0	0
0.28	-0.248283	1.34151	-1.35887	0.809402	1.25168	1.04104	-0.220368	0.148692	0.0548228	0.175838	-0.0558644	0	0	0.160645	-0.177356	-0.151528	1.18233	-0.0123174	0	0	-0.462571	0.144756	0.225476	-0.333862	-0.350399	0.209285	0.68463	0.934204	0	0	0.159185	-0.411571	1.44162	0.457882	0.674972	0	0
0.29	-0.234278	1.33389	-1.37933	0.808478	1.24182	1.04199	-0.256799	0.145009	0.0630971	0.138794	-0.0739274	0	0	0.164636	-0.178632	-0.171886	1.15613	-0.00227399	0	0	-0.472904	0.141813	0.232003	-0.337806	-0.351936	0.199814	0.694116	0.94117	0	0	0.152842	-0.408134	1.43515	0.466976	0.67768	0	0
0.3	-0.222413	1.32661	-1.3979	0.807546	1.23195	1.04266	-0.293127	0.140904	0.0691902	0.0997345	-0.0948155	0	0	0.167449	-0.180085	-0.195496	1.12708	0.00697963	0	0	-0.48284	0.138819	0.238426	-0.34201	-0.353673	0.190042	0.704366	0.948982	0	0	0.146638	-0.404516	1.42849	0.475846	0.682294	0	0
0.31	-0.213772	1.32056	-1.41341	0.806588	1.22211	1.04299	-0.325496	0.13679	0.0737172	0.067206	-0.111389	0	0	0.170311	-0.182621	-0.221878	1.09553	0.0147723	0	0	-0.491216	0.135704	0.244467	-0.345125	-0.355517	0.182374	0.713282	0.956142	0	0	0.14031	-0.401063	1.42163	0.484125	0.686619	0	0
0.32	-0.207683	1.31478	-1.426	0.805607	1.21227	1.04303	-0.356278	0.132878	0.0784221	0.0379476	-0.126552	0	0	0.172169	-0.186506	-0.249967	1.06151	0.0208593	0	0	-0.499345	0.132675	0.250087	-0.347938	-0.35714	0.174901	0.721945	0.963231	0	0	0.134205	-0.398397	1.41417	0.493048	0.691915	0	0
0.33	-0.202658	1.31037	-1.43649	0.804682	1.2023	1.04269	-0.386235	0.128831	0.0832876	0.00739851	-0.141431	0	0	0.174602	-0.190484	-0.278815	1.02504	0.0248553	0	0	-0.505545	0.129732	0.254231	-0.350002	-0.358294	0.168355	0.728989	0.97009	0	0	0.127686	-0.395141	1.40634	0.500088	0.697975	0	0
